<?xml version="1.0" encoding="UTF-8" standalone="no"?>
<!-- Created with Inkscape (http://www.inkscape.org/) -->

<svg
   version="1.1"
   id="svg7258"
   width="1049.3655"
   height="739.75958"
   viewBox="0 0 1049.3655 739.75958"
   xmlns="http://www.w3.org/2000/svg"
   xmlns:svg="http://www.w3.org/2000/svg">
  <defs
     id="defs7262" />
  <g
     id="layer4"
     style="opacity:0.5">
    <g
       id="g7264"
       transform="translate(-260.15171,-207.79263)">
      <path
         style="fill:#f9f98f;fill-opacity:1;opacity:1"
         d="m 769.00985,944.36615 c -11.4749,-3.8216 -38.2263,-14.7688 -50.5,-20.6656 -8.9068,-4.2791 -16.349,-8.1586 -43.5,-22.6758 -7.3491,-3.9294 -28.5263,-16.4244 -30.5,-17.9956 -0.55,-0.4379 -6.4,-4.2511 -13,-8.4738 -6.6,-4.2227 -15.6,-10.2112 -20,-13.3077 -4.4,-3.0966 -11.149,-7.8119 -14.9978,-10.4785 -3.8488,-2.6666 -7.5965,-5.447 -8.3283,-6.1788 -0.7317,-0.7318 -5.2327,-4.3426 -10.0022,-8.0242 -18.9939,-14.6615 -37.02828,-28.9839 -43.73769,-34.7354 -3.88629,-3.3315 -9.49235,-8.0822 -12.45791,-10.5573 -10.99241,-9.174 -25.85012,-22.5639 -43.27516,-39 -8.81802,-8.3175 -51.70547,-51.54608 -70.43961,-70.99994 -16.01376,-16.62895 -23.04604,-24.72962 -57.53077,-66.27124 -39.29454,-47.33569 -44.68521,-54.04917 -50.01237,-62.28479 -12.35143,-17.78241 -27.51393,-33.6794 -38.94867,-52.11002 -1.80374,-3.05711 -1.98269,-4.54807 -1.45937,-12.15916 0.32806,-4.77113 1.04343,-10.02479 1.58971,-11.67479 0.54629,-1.65 3.10481,-9.525 5.6856,-17.5 7.21801,-22.30467 11.67501,-34.11256 22.46389,-59.51332 3.74088,-8.80732 7.78599,-18.70732 8.98914,-22 2.35368,-6.44135 13.13635,-28.81598 17.82444,-36.98668 17.63218,-30.73046 26.29758,-43.52809 44.80096,-66.16493 10.82864,-13.24765 10.49036,-12.94748 16.58676,-14.71838 20.69589,-6.01182 40.10248,-10.57806 64.24934,-15.11743 7.7,-1.44752 16.025,-3.27467 18.5,-4.06033 8.40269,-2.66733 58.80566,-11.61144 78.5,-13.92998 7.15,-0.84175 16.15001,-1.97294 20.00001,-2.51376 3.85,-0.54082 12.4,-1.64202 19,-2.4471 17.0866,-2.08428 34.9883,-4.4565 42.1581,-5.58653 6.1358,-0.96707 43.2312,-4.15065 69.8419,-5.99395 53.6449,-3.71592 128.1425,-3.68296 175,0.0774 7.15,0.5738 21.1,1.21888 31,1.43351 9.9,0.21464 21.6,0.88866 26,1.49783 4.4,0.60916 10.25,1.333 13,1.60851 15.2856,1.53141 41.1429,4.75339 48.7087,6.06939 4.7898,0.83313 9.0648,1.29843 9.5,1.03398 0.4352,-0.26444 3.2663,-0.0713 6.29135,0.42926 3.0249,0.50053 16.2999,2.44651 29.4999,4.32439 13.2,1.87788 27.375,4.15403 31.5,5.05811 4.125,0.90407 10.425,2.02193 14,2.48412 30.0466,3.88454 83.3074,15.23693 106.9053,22.78657 4.7336,1.51441 6.2668,2.7517 12.3388,9.95691 3.8135,4.52519 14.6561,19.93208 24.0947,34.23754 21.6299,32.78285 23.3425,35.5326 29.6557,47.6149 2.8508,5.45597 6.7776,12.84495 8.7263,16.41995 3.3053,6.06398 5.9482,11.66743 21.4602,45.5 10.2108,22.27024 23.6857,59.81388 28.1747,78.5 4.207,17.51212 4.2876,15.74935 -1.0526,23.02256 -2.6158,3.56259 -5.2956,6.81858 -5.9552,7.23552 -0.6595,0.41694 -3.4745,3.88631 -6.2554,7.7097 -2.7809,3.8234 -9.2268,11.72227 -14.3243,17.55305 -11.0259,12.61202 -22.6669,26.34081 -30.5076,35.97917 -3.1319,3.85 -7.0593,8.59795 -8.7275,10.55099 -1.6682,1.95305 -5.2831,6.22802 -8.0331,9.49994 -2.75,3.27193 -9.1136,10.22398 -14.1413,15.44901 -5.0277,5.22503 -10.7237,11.40554 -12.6579,13.73447 -23.249,27.99418 -116.9892,119.56085 -142.7008,139.39205 -3.025,2.3332 -14.05,11.4821 -24.5,20.3309 -18.2483,15.4522 -36.508,30.4416 -49.99725,41.0427 -3.4993,2.75 -8.0814,6.5183 -10.1825,8.374 -10.1485,8.9631 -59.5891,41.9156 -81.8202,54.5338 -10.1503,5.7612 -53.0957,27.11 -59.5,29.5784 -1.925,0.7419 -3.9855,1.7147 -4.5788,2.1618 -0.5934,0.447 -4.0394,1.9271 -7.6579,3.2891 -3.6185,1.362 -11.458,4.5839 -17.4212,7.1597 -20.0341,8.6539 -26.7607,11.4034 -27.8044,11.3649 -0.5707,-0.021 -4.8627,-1.3121 -9.5377,-2.8691 z"
         id="path7800-8" />
      <path
         style="fill:#a3211a;fill-opacity:1;opacity:1"
         d="m 769.0983,944.68269 c -11.4749,-3.8216 -38.2263,-14.7688 -50.5,-20.6656 -8.9068,-4.2791 -16.349,-8.1586 -43.5,-22.6758 -7.3491,-3.9294 -28.5263,-16.4244 -30.5,-17.9956 -0.55,-0.4379 -6.4,-4.2511 -13,-8.4738 -6.6,-4.2227 -15.6,-10.2112 -20,-13.3077 -4.4,-3.0966 -11.149,-7.8119 -14.9978,-10.4785 -3.8488,-2.6666 -7.5965,-5.447 -8.3283,-6.1788 -0.7317,-0.7318 -5.2327,-4.3426 -10.0022,-8.0242 -18.9939,-14.6615 -37.02828,-28.9839 -43.73769,-34.7354 -3.88629,-3.3315 -9.49235,-8.0822 -12.45791,-10.55721 -10.99241,-9.17406 -25.85012,-22.56397 -43.27516,-39 -8.81802,-8.31752 -51.70547,-51.54617 -70.43961,-71 -16.01376,-16.62895 -23.04604,-24.72962 -57.53077,-66.27124 -39.29454,-47.33569 -44.68521,-54.04917 -50.01237,-62.28479 -2.51028,-3.88082 -5.87612,-8.38082 -7.47965,-10 -3.34922,-3.38192 -28.386,-36.88468 -31.46902,-42.11002 -1.80374,-3.05711 -1.98269,-4.54807 -1.45937,-12.15916 0.32806,-4.77113 1.04343,-10.02479 1.58971,-11.67479 0.54629,-1.65 3.10481,-9.525 5.6856,-17.5 7.21801,-22.30467 11.67501,-34.11256 22.46389,-59.51332 3.74088,-8.80732 7.78599,-18.70732 8.98914,-22 2.35368,-6.44135 13.13635,-28.81598 17.82444,-36.98668 17.63218,-30.73046 26.29758,-43.52809 44.80096,-66.16493 10.82864,-13.24765 10.49036,-12.94748 16.58676,-14.71838 20.69589,-6.01182 40.10248,-10.57806 64.24934,-15.11743 7.7,-1.44752 16.025,-3.27467 18.5,-4.06033 8.40269,-2.66733 58.80566,-11.61144 78.5,-13.92998 7.15,-0.84175 16.15001,-1.97294 20.00001,-2.51376 3.85,-0.54082 12.4,-1.64202 19,-2.4471 17.0866,-2.08428 34.9883,-4.4565 42.1581,-5.58653 6.1358,-0.96707 43.2312,-4.15065 69.8419,-5.99395 53.6449,-3.71592 128.1425,-3.68296 175,0.0774 7.15,0.5738 21.1,1.21888 31,1.43351 9.9,0.21464 21.6,0.88866 26,1.49783 4.4,0.60916 10.25,1.333 13,1.60851 15.2856,1.53141 41.1429,4.75339 48.7087,6.06939 4.7898,0.83313 9.0648,1.29843 9.5,1.03398 0.4352,-0.26444 3.2663,-0.0713 6.2913,0.42926 3.025,0.50053 16.3,2.44651 29.5,4.32439 13.2,1.87788 27.375,4.15403 31.5,5.05811 4.125,0.90407 10.425,2.02193 14,2.48412 30.0466,3.88454 83.3074,15.23693 106.9053,22.78657 4.7336,1.51441 6.2668,2.7517 12.3388,9.95691 3.8135,4.52519 14.6561,19.93208 24.0947,34.23754 21.6299,32.78285 23.3425,35.5326 29.6557,47.6149 2.8508,5.45597 6.7776,12.84495 8.7263,16.41995 3.3053,6.06398 5.9482,11.66743 21.4602,45.5 10.2108,22.27024 23.6857,59.81388 28.1747,78.5 4.207,17.51212 4.2876,15.74935 -1.0526,23.02256 -2.6158,3.56259 -5.2956,6.81858 -5.9552,7.23552 -0.6595,0.41694 -3.4745,3.88631 -6.2554,7.7097 -2.7809,3.8234 -9.2268,11.72227 -14.3243,17.55305 -11.0259,12.61202 -22.6669,26.34081 -30.5076,35.97917 -3.1319,3.85 -7.0593,8.59795 -8.7275,10.55099 -1.6682,1.95305 -5.2831,6.22802 -8.0331,9.49994 -2.75,3.27193 -9.1136,10.22398 -14.1413,15.44901 -5.0277,5.22503 -10.7237,11.40554 -12.6579,13.73447 -23.249,27.99418 -116.9892,119.56086 -142.7008,139.39211 -3.025,2.33317 -14.05,11.48205 -24.5,20.33084 -18.2483,15.45217 -36.5081,30.44157 -49.9973,41.04267 -3.4993,2.75 -8.0814,6.5183 -10.1825,8.374 -10.1485,8.9631 -59.5891,41.9156 -81.8202,54.5338 -10.1503,5.7612 -53.0957,27.11 -59.5,29.5784 -1.925,0.7419 -3.9855,1.7147 -4.5788,2.1618 -0.5934,0.447 -4.0394,1.9271 -7.6579,3.2891 -3.6185,1.362 -11.458,4.5839 -17.4212,7.1597 -20.0341,8.6539 -26.7607,11.4034 -27.8044,11.3649 -0.5707,-0.021 -4.8627,-1.3121 -9.5377,-2.8691 z m 12.8638,-35.9098 c 1.9999,-0.9995 6.7862,-3.4314 10.6362,-5.4043 3.85,-1.9729 15.325,-7.416 25.5,-12.0958 10.175,-4.6799 23.225,-10.9626 29,-13.9616 18.5482,-9.6324 35.0227,-18.4956 36.2785,-19.5178 0.6718,-0.5468 3.4715,-2.2242 6.2215,-3.7275 7.6336,-4.1732 21.9908,-13.2524 32,-20.2361 4.95,-3.4538 10.8929,-7.5081 13.2065,-9.0096 4.4202,-2.8688 5.9236,-5 4.5185,-6.4051 -0.7842,-0.7842 -5.7016,0.089 -20.9292,3.7179 -13.5539,3.2298 -53.5657,8.3329 -89.7958,11.4525 -24.3567,2.0973 -72.9231,2.4157 -94.5,0.6197 -39.4203,-3.2813 -47.1351,-4.3792 -78.5,-11.1716 -22.3387,-4.8377 -29.1707,-6.3482 -34,-7.5171 -8.5098,-2.0597 -11.7943,-2.3092 -11.3109,-0.859 0.5728,1.7184 42.0389,29.3862 68.8399,45.9326 20.627,12.7347 46.3766,26.138 75.971,39.5447 9.075,4.1111 17.625,8.1334 19,8.9384 3.2104,1.8796 3.526,1.8676 7.8638,-0.3003 z m 72.1362,-129.60501 c 6.325,-0.84048 15.325,-2.02925 20,-2.64172 11.3776,-1.49058 50.2702,-9.28963 61.5,-12.33244 10.8893,-2.95058 28.8046,-8.89277 37,-12.27231 8.2274,-3.39272 34.5696,-16.79227 42.5,-21.61859 28.7565,-17.50077 64.9626,-52.33309 71.056,-68.36007 1.8597,-4.89147 1.3095,-15.6323 -1.0861,-21.20107 -3.3559,-7.80094 -13.6644,-17.0002 -25.1993,-22.4877 -16.2687,-7.73949 -35.3866,-14.0948 -59.2706,-19.70317 -43.0887,-10.11793 -83.7201,-16.5814 -125.5,-19.96397 -6.875,-0.55661 -18.35,-1.48854 -25.5,-2.07095 -20.8275,-1.69652 -70.1755,-2.9508 -93.5,-2.37648 -75.2182,1.85209 -89.0155,2.85918 -199,14.52545 -11.66035,1.23683 -29.23858,3.72558 -43.00001,6.08798 -6.325,1.08581 -14.2,2.38124 -17.5,2.87874 -21.36147,3.22039 -92.2759,19.6977 -95.19278,22.11849 -0.71897,0.5967 -1.30722,1.76474 -1.30722,2.59565 0,2.41664 27.14093,31.57599 56.53961,60.74436 18.6193,18.47343 47.83281,46.48129 49.75981,47.70621 2.44117,1.55176 4.24533,0.64659 5.94367,-2.98201 1.8394,-3.92996 10.01843,-14.62193 17.05994,-22.30144 8.52181,-9.29394 23.25119,-19.33471 31.82688,-21.69581 5.242,-1.44328 8.4588,0.48801 17.6031,10.56871 12.1789,13.42595 31.4511,29.37939 47.2428,39.10728 7.2256,4.45101 18.1283,9.84875 30.5242,15.11193 58.3134,24.75937 142.7929,37.83249 197.5,30.56293 z M 1217.195,563.83783 c 10.0567,-10.36406 15.3883,-16.6082 28.1302,-32.94459 1.8002,-2.30804 6.8196,-8.38304 11.1541,-13.5 4.3346,-5.11696 9.0406,-11.66552 10.4578,-14.55236 2.3715,-4.83098 2.4805,-5.60824 1.3689,-9.76435 -0.6642,-2.48355 -1.2077,-5.36608 -1.2077,-6.4056 0,-3.07943 -8.8568,-29.65827 -12.6401,-37.93258 -1.9236,-4.20677 -5.0105,-11.24867 -6.8598,-15.64867 -6.1183,-14.55656 -12.9387,-28.7704 -22.9412,-47.81001 -5.435,-10.3455 -11.3173,-22.11205 -13.0718,-26.14788 -2.9472,-6.77959 -5.3088,-11.00576 -11.5951,-20.74978 -4.0721,-6.31185 -7.7937,-4.37051 -4.3581,2.27331 3.8793,7.50173 9.0465,39.33959 6.6273,40.83471 -1.3737,0.84899 -87.7488,1.36531 -90.3489,0.54007 -1.0105,-0.3207 -4.3878,-4.48849 -7.5053,-9.26175 -6.9746,-10.67904 -29.6297,-33.57251 -43.307,-43.76271 -33.2836,-24.79773 -74.9826,-42.00513 -130.5,-53.85179 -31.0817,-6.6324 -38.4649,-7.95232 -53.5,-9.56427 -5.225,-0.56018 -14.9,-1.67254 -21.5,-2.47189 -22.5483,-2.73093 -63.7506,-3.98594 -87,-2.64999 -35.5141,2.04068 -58.6711,4.34679 -77.5,7.71789 -58.893,10.54408 -84.436,18.15972 -119.5,35.62882 -28.3023,14.10038 -43.16735,24.38203 -62.35918,43.13172 -19.48326,19.03439 -34.74483,43.1795 -36.80825,58.23378 -0.86515,6.31196 0.95105,9.19561 7.66742,12.17384 17.08529,7.57612 50.26184,9.80123 181.50001,12.17298 30.8,0.55662 63.875,1.24009 73.5,1.51884 9.625,0.27874 28.075,0.74502 41,1.03616 36.9535,0.83241 48.547,1.32879 82,3.51086 7.975,0.5202 22.15,1.436 31.5,2.03513 64.6538,4.14287 118.8788,10.92113 143.5,17.9379 1.925,0.5486 8.225,2.33573 14,3.97139 39.1527,11.08927 68.8006,24.96478 84.5,39.54684 17.2852,16.05496 43.5149,43.2052 57.4884,59.50583 8.0627,9.40547 15.2421,17 16.0707,17 0.3489,0 5.7658,-5.28833 12.0376,-11.75185 z m -862.02844,1.50185 c 0.0376,-0.6875 0.0197,-4.85 -0.0398,-9.25 -0.16597,-12.28738 1.74433,-38.50292 3.8985,-53.5 3.69268,-25.70818 4.07089,-28.0119 6.1128,-37.23452 6.86977,-31.02845 13.91195,-52.77212 26.4816,-81.76548 2.02678,-4.675 4.54044,-10.64717 5.58592,-13.2715 3.87274,-9.72119 16.36662,-33.55324 24.21678,-46.19344 8.07286,-12.99879 26.52269,-38.32549 30.55222,-41.94005 1.16803,-1.04774 2.12369,-2.56134 2.12369,-3.36354 0,-1.52264 -4.86307,-1.23647 -13,0.765 -1.925,0.4735 -7.325,1.62294 -12,2.55432 -13.22268,2.6343 -28.89746,7.22147 -31.3565,9.17638 -10.98616,8.73387 -41.2306,53.03915 -55.13857,80.77283 -4.96468,9.9 -9.56859,19.35 -10.2309,21 -0.66231,1.65 -3.28933,7.95 -5.83782,14 -13.72321,32.57829 -25.43619,71.48513 -25.43619,84.49109 0,5.39156 2.83786,12.2507 7.28849,17.61635 2.12111,2.55721 6.59681,8.43785 30.88235,40.5765 3.19349,4.22616 6.27972,7.97649 6.85828,8.33406 0.57855,0.35756 2.16433,2.41229 3.52394,4.56606 2.39028,3.78645 5.37521,5.2293 5.51521,2.66594 z M 1177.7346,308.09513 c 0.3713,-0.96774 -2.8531,-5.19492 -9.1476,-11.99226 -10.9789,-11.85605 -10.833,-11.7847 -34.4887,-16.86448 -25.805,-5.54131 -26.4383,-4.65615 -9.25,12.92742 16.8442,17.23156 14.3735,15.83212 29.1002,16.4827 23.5709,1.04128 23.1706,1.0506 23.7861,-0.55338 z"
         id="path7800" />
    </g>
  </g>
</svg>
